<svg width="31" height="31" viewBox="0 0 31 31" fill="none" xmlns="http://www.w3.org/2000/svg">
    <path fill-rule="evenodd" clip-rule="evenodd"
        d="M15.5 4.84375C9.61472 4.84375 4.84375 9.61472 4.84375 15.5C4.84375 21.3853 9.61472 26.1562 15.5 26.1562C21.3853 26.1562 26.1562 21.3853 26.1562 15.5C26.1562 9.61472 21.3853 4.84375 15.5 4.84375ZM2.90625 15.5C2.90625 8.54466 8.54466 2.90625 15.5 2.90625C22.4553 2.90625 28.0938 8.54466 28.0938 15.5C28.0938 22.4553 22.4553 28.0938 15.5 28.0938C8.54466 28.0938 2.90625 22.4553 2.90625 15.5Z"
        fill="white" />
    <path fill-rule="evenodd" clip-rule="evenodd"
        d="M18.4081 9.6875H20.3438C20.8788 9.6875 21.3125 10.1212 21.3125 10.6562C21.3125 11.1913 20.8788 11.625 20.3438 11.625H18.4022C18.148 11.6239 17.8961 11.6732 17.661 11.77C17.426 11.8668 17.2124 12.0092 17.0327 12.1889C16.8529 12.3687 16.7105 12.5822 16.6137 12.8173C16.517 13.0523 16.4677 13.3042 16.4687 13.5584L16.4688 13.5625L16.4688 27.125C16.4688 27.66 16.035 28.0938 15.5 28.0938C14.965 28.0938 14.5312 27.66 14.5312 27.125V13.5644"
        fill="white" />
    <path fill-rule="evenodd" clip-rule="evenodd"
        d="M10.6562 17.4375C10.6562 16.9025 11.09 16.4688 11.625 16.4688H19.375C19.91 16.4688 20.3438 16.9025 20.3438 17.4375C20.3438 17.9725 19.91 18.4062 19.375 18.4062H11.625C11.09 18.4062 10.6562 17.9725 10.6562 17.4375Z"
        fill="white" />
</svg>
    