<svg width="24" height="24" viewBox="0 0 24 24" fill="none" xmlns="http://www.w3.org/2000/svg">
    <g clip-path="url(#clip0_166_485)">
        <path
            d="M23.1212 9.06911L15.5362 1.48311C14.5975 0.5471 13.3259 0.0214844 12.0002 0.0214844C10.6746 0.0214844 9.40298 0.5471 8.46423 1.48311L0.879226 9.06911C0.599651 9.3469 0.377996 9.67741 0.227108 10.0415C0.0762209 10.4056 -0.000896777 10.796 0.000225703 11.1901V21.0071C0.000225703 21.8028 0.316296 22.5658 0.878905 23.1284C1.44151 23.691 2.20458 24.0071 3.00023 24.0071H21.0002C21.7959 24.0071 22.5589 23.691 23.1215 23.1284C23.6842 22.5658 24.0002 21.8028 24.0002 21.0071V11.1901C24.0014 10.796 23.9242 10.4056 23.7733 10.0415C23.6225 9.67741 23.4008 9.3469 23.1212 9.06911ZM15.0002 22.0071H9.00023V18.0731C9.00023 17.2775 9.3163 16.5144 9.87891 15.9518C10.4415 15.3892 11.2046 15.0731 12.0002 15.0731C12.7959 15.0731 13.5589 15.3892 14.1215 15.9518C14.6842 16.5144 15.0002 17.2775 15.0002 18.0731V22.0071ZM22.0002 21.0071C22.0002 21.2723 21.8949 21.5267 21.7073 21.7142C21.5198 21.9018 21.2654 22.0071 21.0002 22.0071H17.0002V18.0731C17.0002 16.747 16.4734 15.4753 15.5358 14.5376C14.5981 13.5999 13.3263 13.0731 12.0002 13.0731C10.6741 13.0731 9.40238 13.5999 8.46469 14.5376C7.52701 15.4753 7.00023 16.747 7.00023 18.0731V22.0071H3.00023C2.73501 22.0071 2.48066 21.9018 2.29312 21.7142C2.10558 21.5267 2.00023 21.2723 2.00023 21.0071V11.1901C2.00115 10.9251 2.10642 10.6711 2.29323 10.4831L9.87823 2.90011C10.4419 2.33904 11.2049 2.02405 12.0002 2.02405C12.7956 2.02405 13.5585 2.33904 14.1222 2.90011L21.7072 10.4861C21.8933 10.6734 21.9985 10.9261 22.0002 11.1901V21.0071Z"
            fill="#6C7072" />
    </g>
    <defs>
        <clipPath id="clip0_166_485">
            <rect width="24" height="24" fill="white" />
        </clipPath>
    </defs>
</svg>
    