<svg width="31" height="31" viewBox="0 0 31 31" fill="none" xmlns="http://www.w3.org/2000/svg">
    <path fill-rule="evenodd" clip-rule="evenodd"
        d="M15.5 11.625C13.3599 11.625 11.625 13.3599 11.625 15.5C11.625 17.6401 13.3599 19.375 15.5 19.375C17.6401 19.375 19.375 17.6401 19.375 15.5C19.375 13.3599 17.6401 11.625 15.5 11.625ZM9.6875 15.5C9.6875 12.2898 12.2898 9.6875 15.5 9.6875C18.7102 9.6875 21.3125 12.2898 21.3125 15.5C21.3125 18.7102 18.7102 21.3125 15.5 21.3125C12.2898 21.3125 9.6875 18.7102 9.6875 15.5Z"
        fill="white" />
    <path fill-rule="evenodd" clip-rule="evenodd"
        d="M10.1719 5.32812C7.49675 5.32812 5.32812 7.49675 5.32812 10.1719V20.8281C5.32812 23.5033 7.49675 25.6719 10.1719 25.6719H20.8281C23.5033 25.6719 25.6719 23.5033 25.6719 20.8281V10.1719C25.6719 7.49675 23.5033 5.32812 20.8281 5.32812H10.1719ZM3.39062 10.1719C3.39062 6.42669 6.42669 3.39062 10.1719 3.39062H20.8281C24.5733 3.39062 27.6094 6.42669 27.6094 10.1719V20.8281C27.6094 24.5733 24.5733 27.6094 20.8281 27.6094H10.1719C6.42669 27.6094 3.39062 24.5733 3.39062 20.8281V10.1719Z"
        fill="white" />
    <path
        d="M21.7969 10.6562C22.5994 10.6562 23.25 10.0057 23.25 9.20312C23.25 8.40059 22.5994 7.75 21.7969 7.75C20.9943 7.75 20.3438 8.40059 20.3438 9.20312C20.3438 10.0057 20.9943 10.6562 21.7969 10.6562Z"
        fill="white" />
</svg>
    