<svg width="31" height="31" viewBox="0 0 31 31" fill="none" xmlns="http://www.w3.org/2000/svg">
    <path fill-rule="evenodd" clip-rule="evenodd"
        d="M3.39062 5.32812C3.39062 4.25807 4.25807 3.39062 5.32812 3.39062H25.6719C26.7419 3.39062 27.6094 4.25807 27.6094 5.32812V25.6719C27.6094 26.7419 26.7419 27.6094 25.6719 27.6094H5.32812C4.25807 27.6094 3.39062 26.7419 3.39062 25.6719V5.32812ZM25.6719 5.32812H5.32812V25.6719H25.6719V5.32812Z"
        fill="white" />
    <path fill-rule="evenodd" clip-rule="evenodd"
        d="M14.5312 12.5938C15.0663 12.5938 15.5 13.0275 15.5 13.5625V21.3125C15.5 21.8475 15.0663 22.2812 14.5312 22.2812C13.9962 22.2812 13.5625 21.8475 13.5625 21.3125V13.5625C13.5625 13.0275 13.9962 12.5938 14.5312 12.5938Z"
        fill="white" />
    <path fill-rule="evenodd" clip-rule="evenodd"
        d="M10.6562 12.5938C11.1913 12.5938 11.625 13.0275 11.625 13.5625V21.3125C11.625 21.8475 11.1913 22.2812 10.6562 22.2812C10.1212 22.2812 9.6875 21.8475 9.6875 21.3125V13.5625C9.6875 13.0275 10.1212 12.5938 10.6562 12.5938Z"
        fill="white" />
    <path fill-rule="evenodd" clip-rule="evenodd"
        d="M17.9219 14.5312C17.2796 14.5312 16.6635 14.7864 16.2094 15.2406C15.7552 15.6948 15.5 16.3108 15.5 16.9531C15.5 17.4882 15.0663 17.9219 14.5312 17.9219C13.9962 17.9219 13.5625 17.4882 13.5625 16.9531C13.5625 15.7969 14.0218 14.6881 14.8393 13.8706C15.6569 13.053 16.7657 12.5938 17.9219 12.5938C19.0781 12.5938 20.1869 13.053 21.0044 13.8706C21.822 14.6881 22.2812 15.7969 22.2812 16.9531V21.3125C22.2812 21.8475 21.8475 22.2812 21.3125 22.2812C20.7775 22.2812 20.3438 21.8475 20.3438 21.3125V16.9531C20.3438 16.3108 20.0886 15.6948 19.6344 15.2406C19.1802 14.7864 18.5642 14.5312 17.9219 14.5312Z"
        fill="white" />
    <path
        d="M10.6562 11.1406C11.4588 11.1406 12.1094 10.49 12.1094 9.6875C12.1094 8.88496 11.4588 8.23438 10.6562 8.23438C9.85371 8.23438 9.20312 8.88496 9.20312 9.6875C9.20312 10.49 9.85371 11.1406 10.6562 11.1406Z"
        fill="white" />
</svg>
    