<svg width="24" height="24" viewBox="0 0 24 24" fill="none" xmlns="http://www.w3.org/2000/svg">
    <path fill-rule="evenodd" clip-rule="evenodd"
        d="M2.02339 19.9996C1.6412 21.3329 2.00006 23.9996 11.9268 23.9996C21.8535 23.9996 22.2178 21.3329 21.8266 19.9996C20.261 16.4392 16.872 14.002 11.8223 14.001C7.03548 14 3.63807 16.4243 2.03693 19.9695L2.02339 19.9996ZM11.9268 15.9996C8.39363 15.9988 5.77818 17.5871 4.32082 19.9996C3.88057 20.6662 4.80006 21.9996 12.0001 21.9996C19.2001 21.9996 20.1394 20.6662 19.7091 19.9996C18.2691 17.588 15.6432 16.0003 11.9268 15.9996Z"
        fill="#6C7072" />
    <path fill-rule="evenodd" clip-rule="evenodd"
        d="M12 12C15.3137 12 18 9.31371 18 6C18 2.68629 15.3137 0 12 0C8.68629 0 6 2.68629 6 6C6 9.31371 8.68629 12 12 12ZM12 10C14.2091 10 16 8.20914 16 6C16 3.79086 14.2091 2 12 2C9.79086 2 8 3.79086 8 6C8 8.20914 9.79086 10 12 10Z"
        fill="#6C7072" />
</svg>
    